<?xml version="1.0" encoding="utf-8"?>
<!-- Generator: Adobe Illustrator 18.1.1, SVG Export Plug-In . SVG Version: 6.00 Build 0)  -->
<svg version="1.1" id="Layer_1" xmlns="http://www.w3.org/2000/svg" xmlns:xlink="http://www.w3.org/1999/xlink" x="0px" y="0px"
	 viewBox="0 0 200 200" enable-background="new 0 0 200 200" xml:space="preserve">
<path fill="#ffffff" d="M82.4,1L82.4,1l0,9c1,0,2.1,0,3.1,0.1c3,0.2,6,0.7,8.7,1.5c2.7,0.8,5.1,1.8,7.3,3.1
	c6.7,3.9,10.5,9.9,11.2,17.7c0.4,4.1,0.2,12.3-0.9,21.6c-1.3,10.5-3.2,16.9-4.6,19.4c-2.9,5.4-10.8,12.1-20.3,14.5
	c-1.2,0.2-2.1,0.3-2.7,0.4c-0.7,0.1-1.3,0.1-1.8,0.1s-1.1,0-1.8-0.1c-0.7-0.1-1.5-0.2-2.7-0.4c-9.5-2.4-17.4-9.1-20.3-14.5
	c-1.3-2.5-3.3-8.9-4.6-19.4c-1.2-9.3-1.3-17.6-0.9-21.6c0.7-7.8,4.5-13.8,11.2-17.7c2.2-1.3,4.6-2.3,7.3-3.1
	c2.7-0.8,5.6-1.3,8.7-1.5c1-0.1,2.1-0.1,3.1-0.1V1 M82.4,0L82.4,0L82.4,0c-1.3,0-2.5,0-3.8,0.1C74.9,0.4,71.3,1,67.8,2
	c-3.4,1-6.7,2.3-9.6,4.1c-8.8,5.2-15,13.6-16.1,25.4c-1,11,1.4,36.8,6.6,46.6c4.6,8.6,15.3,16.8,27.2,19.6c1.4,0.2,2.6,0.4,3.7,0.5
	c1,0.1,1.9,0.2,2.8,0.2c0.9,0,1.8-0.1,2.8-0.2c1-0.1,2.2-0.3,3.7-0.5c11.8-2.9,22.6-11.1,27.2-19.6c5.3-9.8,7.6-35.7,6.6-46.6
	c-1.1-11.8-7.3-20.3-16.1-25.4c-2.9-1.7-6.2-3.1-9.6-4.1c-3.4-1-7.1-1.6-10.8-1.8C84.9,0,83.7,0,82.4,0L82.4,0z"/>
<path fill="#CCCCCC" d="M193.3,53.7c-2.9-2.9-12-9.2-15.6-5.7L104,121.6l0,0l0,0l-8,29.3l29.3-8l0,0l0,0l73.7-73.6
	C202.5,65.7,196.2,56.6,193.3,53.7z M120,137.6l-14.9,4.1l4.1-14.9l0,0L120,137.6L120,137.6z"/>
<g>
	<path fill="#ffffff" d="M150.7,131.5l-7.1,7.1c2.6,1.9,4.7,3.9,6.4,6.1c2.5,3.3,3.9,7,4.3,11c-1.8,3.1-6.1,9.7-14.1,16.2
		c-14.7,11.9-34.1,17.9-57.7,17.9s-43.1-6-57.7-17.9c-8-6.5-12.4-13.1-14.1-16.2c0.4-4.1,1.8-7.7,4.3-11c3.1-4,7.8-7.6,14-10.6
		c12.9-6.2,31.9-9.7,53.6-9.7c3.5,0,6.8,0.1,10.1,0.3l2.2-8l1.7-1.7c-4.6-0.3-9.3-0.5-14.1-0.5c-45.3,0-82,13.9-82,43.5
		c0,0,18,41.9,82,41.9s82-41.9,82-41.9C164.4,147,159.3,138.2,150.7,131.5z"/>
</g>
</svg>
