<?xml version="1.0" encoding="utf-8"?>
<!-- Generator: Adobe Illustrator 18.1.1, SVG Export Plug-In . SVG Version: 6.00 Build 0)  -->
<svg version="1.1" id="Layer_1" xmlns="http://www.w3.org/2000/svg" xmlns:xlink="http://www.w3.org/1999/xlink" x="0px" y="0px"
	 viewBox="0 0 200 200" enable-background="new 0 0 200 200" xml:space="preserve">
<g>
	<path fill="#ffffff" d="M140.3,31.4C139.2,19.6,133,11.2,124.2,6c-2.9-1.7-6.2-3.1-9.6-4.1c-3.4-1-7.1-1.6-10.8-1.8
		C102.5,0,101.3,0,100,0l0,0.1V0c-1.3,0-2.5,0-3.8,0.1C92.5,0.4,88.9,1,85.5,2c-3.4,1-6.7,2.3-9.6,4.1c-8.8,5.2-15,13.6-16.1,25.4
		c-1,11,1.4,36.8,6.6,46.6c4.6,8.6,15.3,16.8,27.2,19.6c1.4,0.2,2.6,0.4,3.7,0.5c1,0.1,1.9,0.2,2.8,0.2s1.8-0.1,2.8-0.2
		c1-0.1,2.2-0.3,3.7-0.5c11.8-2.9,22.6-11.1,27.2-19.6C138.9,68.3,141.3,42.4,140.3,31.4z"/>
	<path fill="#ffffff" d="M100,114.4c-45.3,0-82,13.9-82,43.5c0,0,18,41.9,82,41.9s82-41.9,82-41.9C182,128.3,145.3,114.4,100,114.4z
		"/>
</g>
</svg>
