<?xml version="1.0" encoding="utf-8"?>
<!-- Generator: Adobe Illustrator 18.1.1, SVG Export Plug-In . SVG Version: 6.00 Build 0)  -->
<svg version="1.1" id="Layer_1" xmlns="http://www.w3.org/2000/svg" xmlns:xlink="http://www.w3.org/1999/xlink" x="0px" y="0px"
	 viewBox="0 0 200 200" enable-background="new 0 0 200 200" xml:space="preserve">
<g>
	<path fill="#ffffff" d="M82.2,162.5l-4.6-1.7c0.4-3.3,0.2-6.7-0.4-10.1l4.4-2c2.8-1.3,4-4.5,2.7-7.3l-2.6-5.6
		c-1.3-2.8-4.5-4-7.3-2.7l-4.4,2c-2.2-2.7-4.6-5-7.4-6.8l1.7-4.5c1-2.8-0.4-6-3.2-7.1l-5.8-2.1c-2.7-1-6,0.5-7,3.2l-1.7,4.6
		c-3.3-0.4-6.7-0.2-10.1,0.4l-2-4.4c-1.3-2.8-4.5-4-7.3-2.7l-5.6,2.6c-2.7,1.3-4,4.5-2.7,7.3l2,4.4c-2.7,2.2-5,4.7-6.8,7.4l-4.5-1.7
		c-2.7-1-6,0.5-7.1,3.2l-2.1,5.8c-0.5,1.4-0.4,2.9,0.2,4.2c0.6,1.3,1.7,2.3,3.1,2.8l4.6,1.7c-0.4,3.3-0.2,6.7,0.4,10.1l-4.4,2
		c-2.7,1.3-3.9,4.5-2.7,7.3l2.6,5.6c1.3,2.8,4.5,4,7.3,2.7l4.4-2c2.2,2.7,4.6,5,7.4,6.8l-1.7,4.5c-0.5,1.4-0.4,2.9,0.2,4.2
		c0.6,1.3,1.7,2.4,3.1,2.9l5.8,2.1c1.4,0.5,2.9,0.4,4.2-0.2c1.3-0.6,2.3-1.7,2.8-3.1l1.7-4.6c3.3,0.4,6.7,0.2,10.1-0.4l2,4.4
		c1.3,2.7,4.5,4,7.3,2.7l5.6-2.6c2.7-1.3,4-4.5,2.7-7.3l-2-4.4c2.7-2.2,5-4.6,6.8-7.4l4.6,1.7c1.4,0.5,2.9,0.4,4.2-0.2
		c1.3-0.6,2.3-1.7,2.8-3.1l2.1-5.8C86.5,166.8,85.1,163.6,82.2,162.5L82.2,162.5z M52.1,176.9c-2.9,1.3-5.9,2-9.1,2
		c-8.4,0-16.2-5-19.7-12.6c-5-10.9-0.2-23.8,10.6-28.8c2.9-1.3,5.9-2,9.1-2c8.4,0,16.2,4.9,19.7,12.6
		C67.7,159,62.9,171.9,52.1,176.9L52.1,176.9z M52.1,176.9"/>
	<path fill="#ffffff" d="M194,81l-7.7-2.8c0.6-5.6,0.4-11.3-0.6-16.9l7.4-3.4c4.6-2.1,6.6-7.6,4.5-12.2l-4.3-9.4
		c-2.1-4.6-7.6-6.6-12.2-4.5l-7.4,3.4c-3.6-4.5-7.8-8.3-12.5-11.5L164,16c1.8-4.8-0.7-10.1-5.5-11.8l-9.7-3.6
		C144.3-1.2,138.7,1.4,137,6l-2.8,7.7c-5.6-0.6-11.3-0.4-16.9,0.6l-3.4-7.4c-2.1-4.6-7.6-6.6-12.2-4.5l-9.4,4.3
		c-4.6,2.1-6.6,7.6-4.5,12.2l3.4,7.4c-4.5,3.6-8.3,7.8-11.5,12.5L72,36c-4.6-1.7-10.1,0.8-11.8,5.4l-3.6,9.7c-0.9,2.3-0.8,4.8,0.3,7
		c1,2.2,2.9,3.9,5.2,4.8l7.7,2.8c-0.6,5.6-0.4,11.3,0.6,16.9l-7.4,3.4c-4.6,2.1-6.6,7.6-4.5,12.2l4.3,9.4c2.1,4.6,7.6,6.6,12.2,4.5
		l7.4-3.4c3.6,4.5,7.8,8.3,12.5,11.5L92,128c-0.9,2.3-0.8,4.8,0.3,7.1c1,2.2,2.9,3.9,5.2,4.8l9.7,3.6c2.3,0.8,4.8,0.8,7-0.3
		c2.2-1,3.9-2.9,4.8-5.2l2.8-7.7c5.6,0.6,11.3,0.4,16.9-0.6l3.4,7.4c2.1,4.6,7.6,6.6,12.2,4.5l9.4-4.3c4.6-2.1,6.6-7.6,4.5-12.2
		l-3.4-7.4c4.5-3.6,8.3-7.8,11.5-12.5l7.6,2.8c2.3,0.8,4.8,0.8,7.1-0.3c2.2-1,3.9-2.9,4.8-5.2l3.6-9.7C201.2,88.1,198.7,82.8,194,81
		L194,81z M143.3,105.1c-4.8,2.2-10,3.3-15.2,3.3c-14.2,0-27.2-8.3-33.1-21.2c-8.4-18.3-0.4-40,17.9-48.4c4.8-2.2,10-3.4,15.2-3.4
		c14.2,0,27.2,8.3,33.1,21.2C169.5,75,161.5,96.7,143.3,105.1L143.3,105.1z M143.3,105.1"/>
</g>
</svg>
