<?xml version="1.0" encoding="utf-8"?>
<!-- Generator: Adobe Illustrator 18.1.1, SVG Export Plug-In . SVG Version: 6.00 Build 0)  -->
<svg version="1.1" id="Layer_1" xmlns="http://www.w3.org/2000/svg" xmlns:xlink="http://www.w3.org/1999/xlink" x="0px" y="0px"
	 viewBox="0 0 200 200" enable-background="new 0 0 200 200" xml:space="preserve">
<g>
	<path fill="#ffffff" d="M100,19.9c21.2,0,38.4,17.2,38.4,38.4v76.7v20h20v-20V58.3c0-32.2-26.2-58.4-58.4-58.4l0,0
		c-32.2,0-58.4,26.2-58.4,58.4v76.7v20h20v-20V58.3C61.6,37.1,78.8,19.9,100,19.9"/>
	<path fill="#ffffff" d="M162.4,90c-11.8-3.4-26.9-7-62.4-7v0c-35.5,0-50.6,3.6-62.4,7c-5.3,1.5-10,4.5-10,10v41.5V183
		c0,5.5,4.7,8.5,10,10c11.8,3.4,26.9,7,62.4,7c35.5,0,50.6-3.6,62.4-7c5.3-1.5,10-4.5,10-10v-41.5V100
		C172.4,94.5,167.7,91.5,162.4,90z M108,139.1v26.3c0,4.4-3.6,8-8,8c-4.4,0-8-3.6-8-8v-26.3c-4.7-2.8-8-7.7-8-13.5
		c0-8.8,7.1-15.9,15.9-15.9c8.8,0,15.9,7.1,15.9,15.9C115.9,131.4,112.6,136.3,108,139.1z"/>
</g>
</svg>
