<?xml version="1.0" encoding="utf-8"?>
<!-- Generator: Adobe Illustrator 18.1.1, SVG Export Plug-In . SVG Version: 6.00 Build 0)  -->
<svg version="1.1" id="Layer_1" xmlns="http://www.w3.org/2000/svg" xmlns:xlink="http://www.w3.org/1999/xlink" x="0px" y="0px"
	 viewBox="0 0 200 200" enable-background="new 0 0 200 200" xml:space="preserve">
<g>
	<path fill="#CCCCCC" d="M115,100V7c0-5-10.9-7-15-7l0,0c-4.1,0-15,2-15,7v93H115z"/>
	<path fill="#CCCCCC" d="M85,100v93c0,5,10.9,7,15,7l0,0c4.1,0,15-2,15-7v-93H85z"/>
	<path fill="#CCCCCC" d="M100,85H7c-5,0-7,10.9-7,15l0,0c0,4.1,2,15,7,15h93V85z"/>
	<path fill="#CCCCCC" d="M100,115h93c5,0,7-10.9,7-15l0,0c0-4.1-2-15-7-15h-93V115z"/>
</g>
</svg>
